<?xml version="1.0" encoding="UTF-8"?>
<svg width="76px" height="165px" viewBox="0 0 76 165" version="1.1" xmlns="http://www.w3.org/2000/svg" xmlns:xlink="http://www.w3.org/1999/xlink">
    <!-- Generator: Sketch 50.2 (55047) - http://www.bohemiancoding.com/sketch -->
    <title>Logo</title>
    <desc>Created with Sketch.</desc>
    <defs>
        <polygon id="path-1" points="0 164.188902 75.7278015 164.188902 75.7278015 0.283858037 0 0.283858037"></polygon>
    </defs>
    <g id="Symbols" stroke="none" stroke-width="1" fill="none" fill-rule="evenodd">
        <g id="Header">
            <g id="Logo">
                <g>
                    <polygon id="Fill-1" fill="#E21837" points="0 122.516975 75.6663668 122.516975 75.6663668 0.35615814 0 0.35615814"></polygon>
                    <g id="Group-11">
                        <path d="M11.0214559,85.3252329 C11.0214559,99.5936403 23.1706976,111.17341 38.1399332,111.17341 C53.1095219,111.17341 65.2584105,99.5936403 65.2584105,85.3252329 C65.2584105,84.7657085 65.2333423,84.2118826 65.1966227,83.6612621 L11.0832437,83.6612621 C11.0465241,84.2118826 11.0214559,84.7657085 11.0214559,85.3252329" id="Fill-2" fill="#FEFEFE"></path>
                        <mask id="mask-2" fill="white">
                            <use xlink:href="#path-1"></use>
                        </mask>
                        <g id="Clip-5"></g>
                        <g id="Group-18" mask="url(#mask-2)" fill="#FEFEFE">
                            <g transform="translate(10.047004, 11.223472)">
                                <polygon id="Fill-4" points="0.866482661 61.4505966 11.6394458 61.4505966 11.6394458 0.0403855292 0.866482661 0.0403855292"></polygon>
                                <polygon id="Fill-6" points="22.5253923 61.2764353 33.2983554 61.2764353 33.2983554 0.0403855292 22.5253923 0.0403855292"></polygon>
                                <polygon id="Fill-7" points="44.1835958 61.6251141 54.9565589 61.6251141 54.9565589 0.0407416874 44.1835958 0.0407416874"></polygon>
                            </g>
                        </g>
                        <g id="Group" mask="url(#mask-2)" fill="#FFFFFF">
                            <g transform="translate(0.000000, 130.192273)">
                                <path d="M8.04759271,12.6059141 C8.00134015,13.1187819 7.95544066,12.932155 8.00134015,13.398366 C8.04759271,13.6779501 8.09419834,13.9575343 8.14045091,14.1901056 C8.14045091,14.5630031 8.14045091,14.889244 8.23224988,15.168472 C8.27850245,15.4024679 8.46315962,15.9146233 8.78728063,16.3808343 C9.06408985,16.8466891 9.29499959,17.0803289 9.52590933,17.2195867 C9.84932419,17.4062136 10.1730921,17.4528703 10.5420534,17.5454714 C11.2351357,17.778755 11.512298,17.8720684 12.8059574,17.8720684 C13.2218774,17.8720684 13.5915448,17.778755 14.0074648,17.778755 C14.0533643,17.778755 14.8385986,17.7324544 15.2086191,17.639141 C15.5316809,17.4988147 15.8088432,17.3129001 16.1322581,17.1725738 C16.1322581,17.1725738 16.6410363,16.9866593 16.8715929,16.8466891 C17.1484022,16.6137617 17.2875129,16.3345337 17.5184226,16.0545934 C18.0727472,15.4024679 18.1189998,15.5883824 18.3499095,14.7499861 C18.6270718,13.9105214 18.7192239,13.0254684 18.7192239,12.7458843 C18.7192239,10.8813964 18.9045872,11.8604752 18.3499095,10.4155416 C18.2115049,10.0430002 18.0727472,9.62344589 17.8414844,9.25054831 C17.6571803,9.01762089 17.5646752,8.97096417 17.1950078,8.59842276 C16.6865827,8.17886847 16.5022786,7.99224161 16.2247632,7.85262762 C15.2548717,7.24644646 13.5449392,7.10718863 13.3606351,7.10718863 C12.8059574,7.06017576 12.2516328,7.10718863 11.6514087,7.06017576 C11.2351357,7.01351904 11.0508316,6.96721848 10.8199218,6.96721848 C10.6808111,7.01351904 10.4961539,7.06017576 10.1730921,7.15348919 C9.89522368,7.24644646 9.61841445,7.29310318 9.34089908,7.43307333 C8.50976526,7.89892817 8.14045091,9.29684887 8.14045091,9.34386175 C8.09419834,9.43717518 8.04759271,10.7884392 8.04759271,11.6738483 L8.04759271,12.6059141 Z M26.0652606,12.1860037 C26.0652606,12.6059141 26.1115131,13.0254684 26.1115131,13.4913233 C26.1115131,15.821666 25.4184308,17.1725738 25.0025109,18.0586953 C24.8641062,18.4312367 24.7253486,18.8504348 24.5399852,19.1766757 C24.3094286,19.5495732 23.9863668,19.8758141 23.755104,20.2487117 C23.2004263,21.0411635 23.1545268,21.1804214 22.7386068,21.5533189 C22.2305348,22.0198861 21.3065428,22.6257111 21.2606433,22.6257111 C20.151641,23.3715062 19.4589118,24.0236318 16.9640981,24.4431861 C16.7331883,24.4894866 16.4556729,24.4894866 16.2247632,24.5361433 C15.9942065,24.5828001 15.8088432,24.6294568 15.5779335,24.6761135 C15.5316809,24.6761135 14.2380215,24.7687146 13.4990397,24.7687146 C12.7138054,24.7687146 11.9744705,24.5828001 11.2351357,24.5828001 C11.0970841,24.5828001 9.94147624,24.6294568 9.84932419,24.6761135 C9.71091957,24.6761135 9.52590933,24.7227702 9.38750471,24.7687146 C9.24874703,24.8157275 9.01783729,24.8623842 8.87907961,24.9090409 C8.60156423,25.0490111 8.14045091,25.6081793 8.00134015,25.7940939 C7.95544066,25.934064 7.90883502,26.1203348 7.90883502,26.1669915 C7.8163299,26.5869019 7.77078348,27.2856842 7.77078348,27.3326971 C7.77078348,27.611925 7.8163299,27.8448525 7.86258246,28.078136 C7.86258246,28.2644068 7.86258246,28.4973342 7.90883502,28.683961 C7.95544066,29.289786 8.00134015,29.3827433 8.00134015,29.7552847 C8.00134015,29.9889245 7.95544066,30.174839 8.00134015,30.4077664 C8.00134015,31.0606043 8.09419834,31.0143038 8.04759271,31.9460134 C8.00134015,32.4115121 7.95544066,32.8314226 7.53952067,33.1106506 C7.07805427,33.4835481 6.15370918,33.5772177 4.81379717,33.5772177 C3.9819572,33.5772177 3.05831826,33.4835481 2.22683136,33.4835481 C1.16408165,33.5302048 1.11782909,33.7164756 0.656009619,33.1106506 C0.286342197,32.5984952 0.194190146,32.3652116 0.194190146,31.7590304 C0.194190146,31.3868452 0.240442708,31.0606043 0.240442708,30.6880629 C0.240442708,29.9889245 0.286342197,29.3364428 0.286342197,28.6373043 C0.286342197,28.21775 0.332241686,27.7518952 0.332241686,27.2856842 C0.332241686,26.4932323 0.194190146,25.7014928 0.194190146,24.9090409 C0.240442708,24.3502288 0.286342197,23.7440476 0.240442708,23.2311799 L0.240442708,21.4137049 C0.240442708,20.1550421 0.378494248,18.9441044 0.378494248,17.6857977 C0.378494248,17.1262733 0.332241686,16.567105 0.378494248,16.0079367 C0.424746809,15.6350391 0.517251933,15.2621416 0.517251933,14.8429434 C0.517251933,14.3770886 0.424746809,13.9105214 0.470999371,13.398366 C0.470999371,13.0254684 0.517251933,12.6525709 0.470999371,12.3266862 C0.424746809,11.8134623 0.332241686,11.3009507 0.332241686,10.8350959 C0.332241686,10.3225843 0.378494248,9.80971659 0.378494248,9.34386175 C0.378494248,8.73803675 0.332241686,8.17886847 0.332241686,7.57268732 C0.332241686,7.10718863 0.378494248,6.59432091 0.332241686,6.08180935 C0.240442708,5.28900133 0.101331949,4.54356234 0.101331949,3.7518228 C0.101331949,2.63277392 0.194190146,1.79437766 1.25623371,1.23520938 C2.36523597,0.58272767 2.1805788,0.815655094 3.42798568,0.768998377 C3.88980515,0.722697819 4.3519777,0.629028228 4.85969666,0.629028228 C5.55277895,0.629028228 6.24550816,0.675684945 6.93859044,0.629028228 C7.49326811,0.629028228 8.04759271,0.58272767 8.60156423,0.535714796 C9.11034242,0.535714796 9.61841445,0.535714796 10.1264865,0.489414238 C10.4499013,0.489414238 10.8199218,0.442757521 11.1429836,0.442757521 C11.928218,0.442757521 12.6675528,0.489414238 13.4065346,0.535714796 C14.7926992,0.535714796 15.5316809,0.442757521 17.9343426,1.2818661 C18.1652524,1.32816666 18.9504867,1.56109408 19.643569,1.93363549 C20.0591359,2.12097468 20.4750559,2.40020266 20.8909759,2.63277392 C21.2143907,2.81940079 22.1842822,3.37892522 23.0161222,4.17102093 C23.6625989,4.82350264 23.8938617,5.28900133 24.171024,5.6618989 C24.263176,5.84888192 25.3262788,7.38641661 25.6493406,8.64472332 C25.7877452,9.15723488 25.8339978,9.71675932 25.8798972,10.2759276 C25.9261498,10.648469 26.019008,11.0680233 26.0652606,11.4409209 L26.0652606,12.1860037 Z" id="Fill-8"></path>
                                <path d="M33.4109089,0.629063844 C34.6579627,0.629063844 34.8888724,0.396492579 35.4435501,1.00196142 C36.0896737,1.65444313 35.859117,1.98068398 35.8128644,2.44689499 L35.8128644,2.95940655 C35.8128644,3.33230412 35.7666119,3.7052017 35.7666119,4.07809927 C35.7203593,4.82353825 35.859117,5.61563396 35.859117,6.3614291 C35.859117,6.6873138 35.8128644,7.29313879 35.7203593,8.03893394 C35.6744598,8.36517479 35.6282073,8.73807237 35.6282073,9.06431322 C35.6744598,9.34389736 35.7203593,9.6234815 35.7203593,9.90306564 C35.7666119,10.2293065 35.6282073,11.2083852 36.2280783,11.2083852 C36.6906039,11.2083852 37.2449285,10.7884748 37.6145959,10.6022041 C37.9380108,10.4155772 38.123021,10.4155772 38.7232451,10.2759632 C39.047013,10.1826498 39.3700748,10.0893363 39.6931366,10.0430358 C40.0169045,9.99637907 40.2937138,9.99637907 40.6171286,9.94972236 C40.9408966,9.94972236 41.3102109,9.90306564 41.6336258,9.90306564 C42.0036463,9.90306564 43.4357103,10.0430358 43.7591252,10.1359931 C43.8975298,10.1826498 45.3758464,10.8351315 46.253939,11.4406003 C46.6232533,11.7208968 46.85381,12.1397388 47.1316784,12.5129925 C47.7781551,13.3521011 47.8247607,13.0725169 48.193722,14.0508833 C48.2865802,14.3304675 48.4249848,14.5630387 48.5171368,14.8426229 L48.7946522,15.6817315 C49.3030773,17.3595925 48.9793094,18.7575132 48.9793094,20.435018 C48.9793094,21.180457 49.0255619,21.9262521 49.0714614,22.6257467 C49.0714614,23.3248851 49.0255619,24.0703241 49.0255619,24.7687502 L49.0255619,26.4469674 C48.9793094,26.8661655 48.9793094,27.3327327 48.9793094,27.7982314 C48.9793094,28.2644424 49.0255619,28.7302972 48.9793094,29.2431649 C48.9793094,29.5694058 48.9330568,29.9423034 48.9330568,30.2681881 C48.8868043,31.759066 49.1639666,32.1786203 48.5637425,32.8314582 C47.8247607,33.6702106 47.8710133,33.5302405 46.8079105,33.5302405 C46.3923436,33.5302405 46.0689287,33.5772533 45.6530087,33.5772533 C45.3295939,33.5772533 44.9599264,33.5302405 44.590259,33.5772533 C44.1287926,33.5772533 43.6203675,33.6239101 43.158195,33.6239101 C42.8813857,33.6239101 42.5113652,33.8568375 42.0491927,33.3439698 C41.4952212,32.7381448 41.6798783,31.8993923 41.6798783,31.1069405 L41.6798783,30.0352606 C41.7261309,29.6160625 41.7723835,29.1965082 41.7723835,28.7765978 C41.7723835,28.2644424 41.7261309,27.7519308 41.7723835,27.2390631 C41.818636,26.8661655 41.8648886,26.4932679 41.8648886,26.1203704 C41.8648886,25.5612021 41.818636,25.00239 41.818636,24.4432217 C41.818636,23.9770107 41.8648886,23.5107997 41.8648886,23.0449448 L41.7261309,21.6470241 C41.6798783,20.7612588 41.5877263,20.1091333 41.4952212,19.7828924 C41.3564635,19.4099949 41.4030691,19.5966217 41.2177058,19.1767113 C41.0796543,18.94414 40.9867961,18.7112126 40.802492,18.5242296 C40.5712291,18.338315 39.9702989,17.9184046 39.1391651,17.9184046 C38.7694977,17.9184046 38.4464359,18.0120742 38.3535777,18.0120742 C37.6145959,18.1983449 37.3833331,18.338315 36.9674131,18.94414 C36.7368564,19.2700247 36.5059467,19.5496089 36.367189,19.8758497 C36.0434211,20.5279753 35.6744598,22.112879 35.6744598,24.0236674 C35.6744598,24.7687502 35.7666119,25.5612021 35.7666119,26.3069972 C35.7203593,27.0061357 35.6744598,27.6586174 35.7203593,28.3110991 C35.7203593,28.8236106 35.8128644,29.2898217 35.8128644,29.7553203 C35.8128644,30.2215313 35.6744598,30.6410856 35.7203593,31.1069405 C35.7666119,31.5264948 35.9978747,32.0856631 35.5357021,32.8781149 C35.2581868,33.3439698 34.8888724,33.6239101 33.8723753,33.5772533 C33.2255455,33.5302405 32.5790689,33.4835837 31.9322392,33.4835837 C31.331662,33.4835837 30.7773374,33.5302405 30.2226597,33.5302405 C29.3911728,33.5772533 29.2061626,33.5302405 28.8364952,33.1573429 C28.1900185,32.4585606 28.4205752,32.1786203 28.4205752,31.3402241 L28.4205752,29.8489899 C28.4671808,29.1494953 28.5134334,28.4973698 28.5134334,27.7982314 C28.4671808,25.9340997 28.4205752,24.1169808 28.4205752,22.252493 C28.4205752,20.9945424 28.4205752,19.689579 28.4671808,18.4312723 C28.4671808,17.9654174 28.5134334,17.545507 28.5134334,17.0800083 C28.5134334,16.4271704 28.4671808,15.8217016 28.4671808,15.1685076 C28.4671808,14.7496656 28.5134334,14.2834546 28.5134334,13.8175998 C28.4671808,13.2584315 28.4205752,12.6996194 28.4671808,12.1397388 C28.4671808,11.7208968 28.5134334,11.3009863 28.5134334,10.8814321 C28.5134334,10.4622339 28.4671808,10.0430358 28.5134334,9.6234815 C28.5134334,9.25058393 28.559686,8.87804252 28.559686,8.55180166 C28.5134334,8.03893394 28.4671808,7.52642238 28.4671808,6.9672541 C28.4671808,6.31441623 28.5134334,5.66193452 28.5134334,4.96315225 C28.4671808,4.45064068 28.4205752,3.9374168 28.4205752,3.42561756 C28.4205752,3.14567726 28.4671808,2.86609312 28.4671808,2.58686514 C28.4671808,2.21396757 28.3284231,0.722733435 29.899598,0.535750412 C30.4073169,0.489449854 30.915742,0.582763286 31.423461,0.629063844 L33.4109089,0.629063844 Z" id="Fill-9"></path>
                                <path d="M60.2975584,17.9653106 C59.9741436,18.198238 59.7428808,18.477466 59.6507287,18.5711356 C59.3273139,18.9906899 58.3574223,20.015713 58.3574223,21.6469173 C58.3574223,23.0918509 58.5883321,23.7443326 58.8651413,24.3964581 C59.0046051,24.7230551 59.1426567,25.0489398 59.3273139,25.3751807 C59.7428808,25.9339928 60.759731,26.679788 61.4065607,26.9127154 C61.6840761,27.0060288 61.7758751,27.0526855 62.3301997,27.1456428 C62.6536145,27.1926557 62.9770294,27.2389562 63.3007973,27.2389562 C63.6701117,27.2389562 63.8551219,27.1926557 64.1785368,27.0993422 C65.1946808,26.8660587 65.6106008,26.5398178 66.3499357,25.9339928 C66.4420877,25.8873361 66.9501598,25.5144385 67.2273221,25.141541 C67.5044844,24.7689995 67.4119792,24.7689995 67.7357472,24.1165178 C67.8278992,23.8835904 67.9666569,23.650663 68.0129095,23.4177356 C68.1513141,23.0918509 68.2897187,21.8794886 68.2897187,21.5532477 C68.2897187,21.0410923 67.9666569,19.8290861 67.7357472,19.3635875 C67.5503838,19.0369904 67.4585849,18.8970203 66.9501598,18.4315216 C66.1645723,17.6857265 66.3958352,17.8256966 65.7031059,17.4987434 C64.6869619,17.0332447 65.0100237,17.1725026 64.1785368,17.0332447 C63.8551219,16.986588 63.5779596,16.9399313 63.3007973,16.8929184 C62.5152099,16.8929184 60.8984887,17.5454002 60.2975584,17.9653106 Z M63.3470499,9.81000152 C63.7626168,9.7633448 64.2247893,9.71668809 64.6869619,9.71668809 C65.5184488,9.71668809 67.3660797,10.1362424 68.1054146,10.4624832 C68.5209815,10.6483978 68.9369015,10.8813252 69.3524684,11.1149649 C69.9996512,11.4408496 70.4152181,11.4878625 71.3854627,12.3729155 C72.4475062,13.3049813 72.5403644,13.5845655 73.094336,14.2370472 C73.4177508,14.6566015 73.8336708,15.0294991 74.1111862,15.4953539 C74.3420959,15.8678953 74.6192582,16.4740765 74.9426731,17.4061423 C75.1273303,17.9182977 75.7279074,19.4565447 75.7279074,21.1344057 C75.7279074,21.7402307 75.6354023,22.3460557 75.5898559,22.9048678 C75.5898559,22.9518807 75.5432502,24.1165178 75.4044926,24.6760423 C75.2660879,25.328524 74.9426731,25.9810057 74.8967736,26.1202635 C74.7114103,26.4931611 74.6192582,26.9127154 74.434248,27.3326258 C74.0186811,28.357649 73.5568616,28.8235038 72.9100319,29.6626124 C71.7085245,31.2934605 71.9860398,31.0142325 70.7848855,31.8059721 C70.5077232,32.0388995 70.2302079,32.2255264 69.9071461,32.4117971 C69.5371256,32.5984239 69.4453266,32.5984239 68.8902958,32.8313513 C68.5672341,32.9246648 68.3363243,33.0646349 68.059162,33.2042489 C67.8741518,33.2972062 66.9964123,33.6238032 66.2108249,33.763061 C65.4259437,33.9030312 65.0562762,33.8567306 64.3169414,33.9030312 C63.8551219,33.9030312 63.3933024,33.9967008 62.9311299,33.9967008 C62.2839471,33.9967008 62.0071379,33.9030312 60.8056305,33.7167605 C59.3273139,33.4834769 59.0501516,33.4371763 58.2652703,33.0646349 C57.5718349,32.7383941 55.9551137,31.8526288 55.3545366,31.3871301 C54.8464645,30.9675758 54.7077068,30.7342922 54.5234027,30.4543519 C54.2917868,30.1747678 54.0612302,29.8488831 53.8299674,29.5692989 C53.6449571,29.3830282 53.4602999,29.1964014 53.3215423,29.0101307 C52.3975502,27.9384508 52.1203879,26.9127154 51.704821,25.6081081 C51.4739113,24.862313 51.288901,24.3501576 51.196749,23.5573496 C51.1504964,22.8115544 51.196749,22.9985374 51.2426485,21.9731581 C51.2426485,21.5069471 51.1504964,21.0410923 51.1504964,20.5748813 C51.1504964,20.2019837 51.288901,18.9906899 51.3814062,18.6640929 C51.4739113,18.3848649 51.5660633,18.1052807 51.704821,17.7790399 C51.9357308,17.1265582 51.8898313,17.1265582 52.0744885,16.7540168 C52.3050451,16.3344625 52.62846,15.914552 52.9056223,15.5416545 C53.2756428,14.9828423 53.7371092,14.2370472 54.2455343,13.8174929 C54.384292,13.6778789 54.5689491,13.5845655 54.7077068,13.4449515 C55.0311217,13.2116679 55.5391937,12.6058429 55.5391937,12.6058429 C55.6316988,12.5128856 55.8622555,12.2796021 56.140124,12.0936875 C56.7866006,11.6274765 56.8791057,11.6737771 57.5718349,11.3008795 C57.9874019,11.0679521 58.3574223,10.7887241 58.7733423,10.6020972 C59.7428808,10.1362424 61.1752979,9.81000152 62.2839471,9.81000152 L63.3470499,9.81000152 Z" id="Fill-10"></path>
                            </g>
                        </g>
                    </g>
                </g>
            </g>
        </g>
    </g>
</svg>